<svg xmlns="http://www.w3.org/2000/svg" width="70" height="78.63" viewBox="0 0 70 78.63">
  <path id="earlybirds-brands" d="M45.576,14.194c.175-2.06,3.106-2.219,5.336-1.379.131.048,3.82,1.537,2.77,2.409C49.615,14.051,45.459,18.109,45.576,14.194ZM16.27,15.287c4.476-1.284,9.04,3.17,8.909-1.125-.19-2.251-3.412-2.425-5.861-1.522-.146.048-4.185,1.664-3.047,2.647ZM46.48,32.024a2.545,2.545,0,1,0,2.333,2.536A2.448,2.448,0,0,0,46.48,32.024Zm-23.285,0a2.545,2.545,0,1,0,2.333,2.536A2.448,2.448,0,0,0,23.2,32.024ZM69.633,57.89c-1.443,3.8-5.934,1.743-9.317-.19C58.348,68.651,51.845,75.355,41.9,77.384c.044.143-.292-.016,3.5.158,4.9.222,9.3-.491,14.2-1.268a5.05,5.05,0,0,1-1.429-6.038,3.963,3.963,0,0,1,3.149,1.823,5.2,5.2,0,0,1,4.4-2.155,5.57,5.57,0,0,1-1.006,5.484c.685-.143,1.2-.254,1.429-.333.379-.127,2.581,1.791.452,2.108-2.085.365-3.3.808-6.867,1.712A76.963,76.963,0,0,1,42.572,80.9l.146,1.838a2.075,2.075,0,1,1-4.024.983c.117,2.837-3.951,3.455-4.141-.158l-.073.84a2.067,2.067,0,1,1-4.126-.1,2.057,2.057,0,0,1-3.849-1.347L26.68,81c-5.351.143-8.7.491-9.011.491-3.047,0-3.047-5.008,0-5.008.35,0,4.039.206,9.215.444-8.909-2.457-15.12-8.717-16.753-18.734-3.645,2.029-8.384,4.248-9.944.127-1.531-4.026,3.135-6.752,9.74-11.633.1-1.046.233-2.108.394-3.138-2.1-3.106-1.691-5.753-2.347-9.573-2.449.38-3.383-1.442-3.441-3.661a11.89,11.89,0,0,1,.35-2.441c.16-.285,1.473-.317,1.852-.412.875-5.024,7.378-5.262,13.253-5.468,2.872-3.455,6.59-6.577,11.8-7.655a5.908,5.908,0,0,1-.35-6.4,4.755,4.755,0,0,1,3.835,3.677,3.588,3.588,0,0,1,2.858-1.7,3.746,3.746,0,0,1-.714,4.1c5.876.555,10.527,3.915,14,8.035,5.263.238,10.469.935,11.241,5.389.394.1,1.691.127,1.852.412a11.89,11.89,0,0,1,.35,2.441c-.073,2.2-.991,4.026-3.441,3.661-.467,2.742-.394,5.214-1.268,7.56a45.292,45.292,0,0,1,.7,5.769C66.236,51.312,71.091,54.022,69.633,57.89ZM30.15,32.008c.131-6.974-5.526-6.688-11.46-6.387-3.164.158-5.672.3-6.634,2.2-1.662,3.312.86,14.724,3.383,16.039,1.429.745,10.7,1.252,12.583-1.125C29.217,41.248,30.208,34.908,30.15,32.008Zm7.582,9.24c-.627-1.965-.875-4.771-2.231-5.183a5.44,5.44,0,0,0-1.6,0c-1.458.444-1.575,3.5-2.479,5.9,2.245,0,2.814,1.537,3.456,1.537S35.793,41.708,37.732,41.248ZM57.517,27.824c-.962-1.918-3.616-2.045-6.78-2.2-5.861-.3-11.4-.6-11.27,6.387-.073,2.9.729,9.24,1.925,10.746,1.9,2.362,11.168,1.87,12.583,1.125C56.278,42.675,59.3,31.374,57.517,27.824Z" transform="translate(0.104 -7.921)" fill="#fff"/>
</svg>
