<svg xmlns="http://www.w3.org/2000/svg" width="70" height="49.219" viewBox="0 0 70 49.219">
  <path id="youtube-brands" d="M83.47,71.7a8.8,8.8,0,0,0-6.189-6.229C71.823,64,49.933,64,49.933,64s-21.889,0-27.349,1.472A8.8,8.8,0,0,0,16.4,71.7c-1.463,5.494-1.463,16.958-1.463,16.958s0,11.464,1.463,16.958a8.665,8.665,0,0,0,6.189,6.129c5.459,1.472,27.349,1.472,27.349,1.472s21.89,0,27.349-1.472a8.665,8.665,0,0,0,6.189-6.129c1.463-5.494,1.463-16.958,1.463-16.958S84.933,77.2,83.47,71.7Zm-40.7,27.366V78.251l18.3,10.408Z" transform="translate(-14.933 -64)" fill="#fff"/>
</svg>
