<svg xmlns="http://www.w3.org/2000/svg" width="51.963" height="36.536" viewBox="0 0 51.963 36.536">
  <path id="youtube-brands02" d="M65.81,69.717a6.529,6.529,0,0,0-4.594-4.624C57.164,64,40.914,64,40.914,64s-16.249,0-20.3,1.093a6.529,6.529,0,0,0-4.594,4.624c-1.086,4.079-1.086,12.588-1.086,12.588s0,8.51,1.086,12.588a6.432,6.432,0,0,0,4.594,4.55c4.052,1.093,20.3,1.093,20.3,1.093s16.249,0,20.3-1.093a6.432,6.432,0,0,0,4.594-4.55C66.9,90.815,66.9,82.305,66.9,82.305S66.9,73.8,65.81,69.717ZM35.6,90.031V74.579l13.581,7.726L35.6,90.031Z" transform="translate(-14.933 -64)"/>
</svg>
